# xmcd CD database file
#
# Track frame offsets:
#	150
#	23439
#	49693
#
# Disc length: 966 seconds
#
# Revision: 0
# Processed by: cddbd v1.5.1PL0 Copyright (c) Steve Scherf et al.
# Submitted via: CDex 1.51
#
DISCID=1603c403
DTITLE=Soyuz Project - Preview Release#2
DYEAR=2001
DGENRE=Techno
TTITLE0=Tensou2
TTITLE1=Keibakab
TTITLE2=Dis
EXTD=YEAR: 2001
EXTT0=
EXTT1=
EXTT2=
PLAYORDER=
